<?xml version="1.0" encoding="UTF-8" standalone="no"?>
<!DOCTYPE svg PUBLIC "-//W3C//DTD SVG 1.1//EN"
 "http://www.w3.org/Graphics/SVG/1.1/DTD/svg11.dtd">
<!-- Generated by graphviz version 5.0.0 (20220707.1540)
 -->
<!-- Title: dependencies Pages: 1 -->
<svg width="753pt" height="253pt"
 viewBox="0.00 0.00 753.00 252.80" xmlns="http://www.w3.org/2000/svg" xmlns:xlink="http://www.w3.org/1999/xlink">
<g id="graph0" class="graph" transform="scale(1 1) rotate(0) translate(4 248.8)">
<title>dependencies</title>
<polygon fill="white" stroke="transparent" points="-4,4 -4,-248.8 749,-248.8 749,4 -4,4"/>
<text text-anchor="middle" x="372.5" y="-8.2" font-family="sans-serif" font-size="14.00">dependencies</text>
<g id="clust1" class="cluster">
<title>cluster_AppModule</title>
<polygon fill="none" stroke="black" stroke-dasharray="1,5" points="315,-32.8 315,-228.8 603,-228.8 603,-32.8 315,-32.8"/>
</g>
<g id="clust3" class="cluster">
<title>cluster_AppModule_imports</title>
<polygon fill="none" stroke="black" points="339,-108.8 339,-160.8 447,-160.8 447,-108.8 339,-108.8"/>
</g>
<g id="clust6" class="cluster">
<title>cluster_AppModule_providers</title>
<polygon fill="none" stroke="black" points="323,-40.8 323,-92.8 595,-92.8 595,-40.8 323,-40.8"/>
</g>
<g id="clust7" class="cluster">
<title>cluster_AuthModule</title>
<polygon fill="none" stroke="black" stroke-dasharray="1,5" points="8,-100.8 8,-228.8 307,-228.8 307,-100.8 8,-100.8"/>
</g>
<g id="clust12" class="cluster">
<title>cluster_AuthModule_providers</title>
<polygon fill="none" stroke="black" points="16,-108.8 16,-160.8 299,-160.8 299,-108.8 16,-108.8"/>
</g>
<g id="clust13" class="cluster">
<title>cluster_UsersModule</title>
<polygon fill="none" stroke="black" stroke-dasharray="1,5" points="611,-168.8 611,-236.8 737,-236.8 737,-168.8 611,-168.8"/>
</g>
<g id="clust16" class="cluster">
<title>cluster_UsersModule_exports</title>
<polygon fill="none" stroke="black" points="619,-176.8 619,-228.8 729,-228.8 729,-176.8 619,-176.8"/>
</g>
<!-- UsersModule -->
<g id="node1" class="node">
<title>UsersModule</title>
<polygon fill="#8dd3c7" stroke="black" points="438.94,-152.8 435.94,-156.8 414.94,-156.8 411.94,-152.8 347.06,-152.8 347.06,-116.8 438.94,-116.8 438.94,-152.8"/>
<text text-anchor="middle" x="393" y="-130.6" font-family="Times,serif" font-size="14.00">UsersModule</text>
</g>
<!-- AppModule -->
<g id="node2" class="node">
<title>AppModule</title>
<polygon fill="#8dd3c7" stroke="black" points="499.66,-220.8 496.66,-224.8 475.66,-224.8 472.66,-220.8 416.34,-220.8 416.34,-184.8 499.66,-184.8 499.66,-220.8"/>
<text text-anchor="middle" x="458" y="-198.6" font-family="Times,serif" font-size="14.00">AppModule</text>
</g>
<!-- UsersModule&#45;&gt;AppModule -->
<g id="edge1" class="edge">
<title>UsersModule&#45;&gt;AppModule</title>
<path fill="none" stroke="black" d="M427.44,-153.02C427.44,-153.02 427.44,-174.53 427.44,-174.53"/>
<polygon fill="black" stroke="black" points="423.94,-174.53 427.44,-184.53 430.94,-174.53 423.94,-174.53"/>
</g>
<!-- AuthModule -->
<g id="node5" class="node">
<title>AuthModule</title>
<polygon fill="#8dd3c7" stroke="black" points="275.55,-220.8 272.55,-224.8 251.55,-224.8 248.55,-220.8 188.45,-220.8 188.45,-184.8 275.55,-184.8 275.55,-220.8"/>
<text text-anchor="middle" x="232" y="-198.6" font-family="Times,serif" font-size="14.00">AuthModule</text>
</g>
<!-- UsersModule&#45;&gt;AuthModule -->
<g id="edge4" class="edge">
<title>UsersModule&#45;&gt;AuthModule</title>
<path fill="none" stroke="black" d="M381.73,-153.02C381.73,-173.17 381.73,-202.8 381.73,-202.8 381.73,-202.8 285.71,-202.8 285.71,-202.8"/>
<polygon fill="black" stroke="black" points="285.71,-199.3 275.71,-202.8 285.71,-206.3 285.71,-199.3"/>
</g>
<!-- UsersService  -->
<g id="node8" class="node">
<title>UsersService </title>
<polygon fill="#fb8072" stroke="black" points="720.86,-220.8 627.14,-220.8 627.14,-184.8 720.86,-184.8 720.86,-220.8"/>
<text text-anchor="middle" x="674" y="-198.6" font-family="Times,serif" font-size="14.00">UsersService </text>
</g>
<!-- UsersModule&#45;&gt;UsersService  -->
<g id="edge7" class="edge">
<title>UsersModule&#45;&gt;UsersService </title>
<path fill="none" stroke="black" stroke-dasharray="5,2" d="M438.77,-134.8C518.4,-134.8 674,-134.8 674,-134.8 674,-134.8 674,-174.58 674,-174.58"/>
<polygon fill="black" stroke="black" points="670.5,-174.58 674,-184.58 677.5,-174.58 670.5,-174.58"/>
</g>
<!-- AppService -->
<g id="node3" class="node">
<title>AppService</title>
<ellipse fill="#fdb462" stroke="black" cx="530" cy="-66.8" rx="56.75" ry="18"/>
<text text-anchor="middle" x="530" y="-62.6" font-family="Times,serif" font-size="14.00">AppService</text>
</g>
<!-- AppService&#45;&gt;AppModule -->
<g id="edge2" class="edge">
<title>AppService&#45;&gt;AppModule</title>
<path fill="none" stroke="black" d="M486.6,-78.4C486.6,-78.4 486.6,-174.42 486.6,-174.42"/>
<polygon fill="black" stroke="black" points="483.1,-174.42 486.6,-184.42 490.1,-174.42 483.1,-174.42"/>
</g>
<!-- UsersService -->
<g id="node4" class="node">
<title>UsersService</title>
<ellipse fill="#fdb462" stroke="black" cx="393" cy="-66.8" rx="61.97" ry="18"/>
<text text-anchor="middle" x="393" y="-62.6" font-family="Times,serif" font-size="14.00">UsersService</text>
</g>
<!-- UsersService&#45;&gt;UsersModule -->
<g id="edge8" class="edge">
<title>UsersService&#45;&gt;UsersModule</title>
<path fill="none" stroke="black" d="M393,-85.02C393,-85.02 393,-106.53 393,-106.53"/>
<polygon fill="black" stroke="black" points="389.5,-106.53 393,-116.53 396.5,-106.53 389.5,-106.53"/>
</g>
<!-- UsersService&#45;&gt;AppModule -->
<g id="edge3" class="edge">
<title>UsersService&#45;&gt;AppModule</title>
<path fill="none" stroke="black" d="M446.85,-75.72C446.85,-75.72 446.85,-174.42 446.85,-174.42"/>
<polygon fill="black" stroke="black" points="443.35,-174.42 446.85,-184.42 450.35,-174.42 443.35,-174.42"/>
</g>
<!-- AuthService -->
<g id="node6" class="node">
<title>AuthService</title>
<ellipse fill="#fdb462" stroke="black" cx="232" cy="-134.8" rx="59.11" ry="18"/>
<text text-anchor="middle" x="232" y="-130.6" font-family="Times,serif" font-size="14.00">AuthService</text>
</g>
<!-- AuthService&#45;&gt;AuthModule -->
<g id="edge5" class="edge">
<title>AuthService&#45;&gt;AuthModule</title>
<path fill="none" stroke="black" d="M232,-153.02C232,-153.02 232,-174.53 232,-174.53"/>
<polygon fill="black" stroke="black" points="228.5,-174.53 232,-184.53 235.5,-174.53 228.5,-174.53"/>
</g>
<!-- LocalStrategy -->
<g id="node7" class="node">
<title>LocalStrategy</title>
<ellipse fill="#fdb462" stroke="black" cx="89" cy="-134.8" rx="65.4" ry="18"/>
<text text-anchor="middle" x="89" y="-130.6" font-family="Times,serif" font-size="14.00">LocalStrategy</text>
</g>
<!-- LocalStrategy&#45;&gt;AuthModule -->
<g id="edge6" class="edge">
<title>LocalStrategy&#45;&gt;AuthModule</title>
<path fill="none" stroke="black" d="M89,-153.02C89,-173.17 89,-202.8 89,-202.8 89,-202.8 178.32,-202.8 178.32,-202.8"/>
<polygon fill="black" stroke="black" points="178.32,-206.3 188.32,-202.8 178.32,-199.3 178.32,-206.3"/>
</g>
</g>
</svg>
