<?xml version="1.0" encoding="UTF-8"?>
<svg xmlns="http://www.w3.org/2000/svg" xmlns:xlink="http://www.w3.org/1999/xlink" viewBox="0 0 480 480" width="480px" height="480px">
<g id="surface52236995">
<path style=" stroke:none;fill-rule:nonzero;fill:rgb(71.764708%,10.980392%,10.980392%);fill-opacity:1;" d="M 257.1875 154.84375 C 248.914062 166.894531 230.71875 189.21875 230.71875 189.21875 C 230.71875 189.21875 210.039062 169.304688 200.9375 154.84375 C 200.9375 154.84375 210.863281 138.613281 230.5 120.46875 C 243.949219 134.59375 257.1875 154.84375 257.1875 154.84375 Z M 303.28125 189.21875 C 303.28125 189.21875 300.9375 186.09375 300.9375 178.28125 C 300.9375 160.3125 332.1875 151.71875 332.1875 151.71875 C 325.9375 139.21875 307.1875 111.09375 307.1875 111.09375 L 310.3125 86.09375 L 288.4375 95.46875 C 271.25 74.375 236.875 47.03125 232.1875 45.46875 C 232.1875 45.46875 215.78125 55.625 184.53125 80.625 C 184.53125 80.625 168.90625 70.46875 164.21875 70.46875 C 161.289062 70.46875 159.53125 71.25 158.757812 75.863281 C 157.882812 81.070312 157.1875 86.875 156.335938 92.867188 C 155.601562 98.085938 154.78125 103.480469 151.363281 107.730469 C 136.09375 126.71875 119.6875 143.125 119.6875 143.125 C 119.6875 143.125 150.9375 154.0625 150.9375 182.96875 C 150.9375 186.875 149.375 189.21875 149.375 189.21875 C 132.96875 189.21875 107.1875 170.46875 107.1875 170.46875 C 107.1875 176.71875 129.84375 209.53125 144.6875 226.71875 C 144.6875 226.71875 152.5 220.46875 163.4375 220.46875 C 175.9375 220.46875 194.6875 229.0625 194.6875 261.875 C 194.6875 276.71875 190.78125 282.96875 180.625 282.96875 C 175.9375 282.96875 169.6875 279.0625 169.6875 279.0625 L 207.1875 345.46875 C 207.1875 345.46875 213.4375 325.15625 213.4375 291.5625 C 213.4375 254.84375 206.898438 237.011719 196.25 217.34375 C 186.09375 198.59375 175.9375 186.09375 175.9375 157.96875 C 175.9375 135.3125 198.59375 107.96875 233.75 107.96875 C 260.3125 107.96875 275.9375 138.875 275.9375 157.96875 C 275.9375 182.96875 268.46875 202.882812 256.980469 222.03125 C 238.230469 253.28125 238.4375 257.96875 238.4375 257.96875 C 238.4375 257.96875 242.425781 289.21875 244.6875 326.71875 C 264.726562 303.800781 268.125 297.8125 282.1875 264.21875 C 282.1875 264.21875 272.199219 269.710938 271.25 270 C 270.261719 270.304688 269.210938 270.46875 268.125 270.46875 C 262.085938 270.46875 257.1875 265.570312 257.1875 259.53125 C 257.1875 257.476562 257.757812 255.554688 258.75 253.914062 C 259.617188 252.476562 258.75 253.914062 269.6875 234.53125 C 273.636719 227.523438 277.5 220.46875 287.65625 220.46875 C 302.5 220.46875 313.4375 232.96875 313.4375 232.96875 C 336.875 200.9375 344.6875 176.71875 344.6875 176.71875 C 322.8125 190 303.28125 189.21875 303.28125 189.21875 Z M 303.28125 189.21875 "/>
<path style=" stroke:none;fill-rule:nonzero;fill:rgb(0%,0%,0%);fill-opacity:1;" d="M 66.691406 382.570312 L 74.074219 414.585938 L 80.132812 382.570312 L 89.367188 382.570312 L 79.382812 427.558594 L 70.054688 427.558594 L 62.730469 397.464844 L 55.40625 427.558594 L 46.078125 427.558594 L 36.09375 382.570312 L 45.339844 382.570312 L 51.421875 414.515625 L 58.839844 382.570312 Z M 121.160156 427.558594 L 112.136719 427.558594 C 111.730469 426.753906 111.433594 425.753906 111.246094 424.558594 C 109.082031 426.972656 106.269531 428.179688 102.808594 428.179688 C 99.535156 428.179688 96.820312 427.230469 94.664062 425.332031 C 92.515625 423.441406 91.441406 421.050781 91.441406 418.160156 C 91.441406 414.621094 92.753906 411.902344 95.378906 410.003906 C 98.003906 408.113281 101.796875 407.15625 106.757812 407.132812 L 110.871094 407.132812 L 110.871094 405.222656 C 110.871094 403.675781 110.476562 402.4375 109.6875 401.507812 C 108.890625 400.585938 107.636719 400.125 105.925781 400.125 C 104.425781 400.125 103.246094 400.484375 102.386719 401.203125 C 101.535156 401.921875 101.109375 402.910156 101.109375 404.167969 L 92.179688 404.167969 C 92.179688 402.230469 92.777344 400.4375 93.972656 398.789062 C 95.167969 397.140625 96.855469 395.847656 99.035156 394.910156 C 101.222656 393.972656 103.675781 393.503906 106.394531 393.503906 C 110.511719 393.503906 113.78125 394.539062 116.203125 396.609375 C 118.625 398.679688 119.835938 401.589844 119.835938 405.339844 L 119.835938 419.835938 C 119.851562 423.007812 120.292969 425.40625 121.160156 427.03125 Z M 104.753906 421.347656 C 106.074219 421.347656 107.289062 421.054688 108.398438 420.46875 C 109.515625 419.882812 110.339844 419.09375 110.871094 418.101562 L 110.871094 412.359375 L 107.53125 412.359375 C 103.0625 412.359375 100.683594 413.902344 100.394531 416.988281 L 100.371094 417.515625 C 100.371094 418.625 100.761719 419.542969 101.542969 420.269531 C 102.324219 420.988281 103.394531 421.347656 104.753906 421.347656 Z M 145.605469 393.914062 L 145.476562 402.503906 C 144.265625 402.339844 143.195312 402.257812 142.265625 402.257812 C 138.890625 402.257812 136.675781 403.398438 135.621094 405.679688 L 135.621094 427.558594 L 126.691406 427.558594 L 126.691406 394.125 L 135.128906 394.125 L 135.375 398.109375 C 137.164062 395.039062 139.648438 393.503906 142.828125 393.503906 C 143.8125 393.503906 144.738281 393.640625 145.605469 393.914062 Z M 163.089844 420.972656 C 164.738281 420.972656 166.078125 420.519531 167.109375 419.613281 C 168.140625 418.707031 168.675781 417.503906 168.714844 416.003906 L 177.09375 416.003906 C 177.070312 418.269531 176.449219 420.34375 175.230469 422.226562 C 174.019531 424.109375 172.359375 425.574219 170.25 426.621094 C 168.132812 427.660156 165.796875 428.179688 163.242188 428.179688 C 158.46875 428.179688 154.699219 426.660156 151.933594 423.621094 C 149.175781 420.582031 147.796875 416.382812 147.796875 411.023438 L 147.796875 410.4375 C 147.796875 405.289062 149.167969 401.179688 151.910156 398.109375 C 154.644531 395.039062 158.402344 393.503906 163.183594 393.503906 C 167.363281 393.503906 170.714844 394.695312 173.238281 397.078125 C 175.761719 399.453125 177.046875 402.621094 177.09375 406.582031 L 168.714844 406.582031 C 168.675781 404.847656 168.140625 403.441406 167.109375 402.363281 C 166.078125 401.277344 164.71875 400.734375 163.03125 400.734375 C 160.953125 400.734375 159.382812 401.492188 158.320312 403.007812 C 157.257812 404.523438 156.726562 406.980469 156.726562 410.378906 L 156.726562 411.304688 C 156.726562 414.742188 157.253906 417.214844 158.308594 418.722656 C 159.355469 420.222656 160.949219 420.972656 163.089844 420.972656 Z M 201.09375 393.914062 L 200.976562 402.503906 C 199.757812 402.339844 198.6875 402.257812 197.765625 402.257812 C 194.382812 402.257812 192.167969 403.398438 191.121094 405.679688 L 191.121094 427.558594 L 182.191406 427.558594 L 182.191406 394.125 L 190.628906 394.125 L 190.875 398.109375 C 192.664062 395.039062 195.144531 393.503906 198.316406 393.503906 C 199.308594 393.503906 200.234375 393.640625 201.09375 393.914062 Z M 232.734375 427.558594 L 223.710938 427.558594 C 223.304688 426.753906 223.007812 425.753906 222.820312 424.558594 C 220.65625 426.972656 217.84375 428.179688 214.382812 428.179688 C 211.109375 428.179688 208.394531 427.230469 206.238281 425.332031 C 204.089844 423.441406 203.015625 421.050781 203.015625 418.160156 C 203.015625 414.621094 204.328125 411.902344 206.953125 410.003906 C 209.578125 408.113281 213.375 407.15625 218.34375 407.132812 L 222.445312 407.132812 L 222.445312 405.222656 C 222.445312 403.675781 222.050781 402.4375 221.261719 401.507812 C 220.464844 400.585938 219.210938 400.125 217.5 400.125 C 216 400.125 214.824219 400.484375 213.972656 401.203125 C 213.113281 401.921875 212.683594 402.910156 212.683594 404.167969 L 203.753906 404.167969 C 203.753906 402.230469 204.351562 400.4375 205.546875 398.789062 C 206.742188 397.140625 208.429688 395.847656 210.609375 394.910156 C 212.796875 393.972656 215.25 393.503906 217.96875 393.503906 C 222.085938 393.503906 225.355469 394.539062 227.777344 396.609375 C 230.199219 398.679688 231.410156 401.589844 231.410156 405.339844 L 231.410156 419.835938 C 231.433594 423.007812 231.875 425.40625 232.734375 427.03125 Z M 216.328125 421.347656 C 217.648438 421.347656 218.863281 421.054688 219.972656 420.46875 C 221.089844 419.882812 221.914062 419.09375 222.445312 418.101562 L 222.445312 412.359375 L 219.117188 412.359375 C 214.640625 412.359375 212.257812 413.902344 211.96875 416.988281 L 211.945312 417.515625 C 211.945312 418.625 212.335938 419.542969 213.117188 420.269531 C 213.898438 420.988281 214.96875 421.347656 216.328125 421.347656 Z M 249.667969 427.558594 L 240.714844 427.558594 L 240.714844 400.675781 L 235.734375 400.675781 L 235.734375 394.125 L 240.714844 394.125 L 240.714844 391.277344 C 240.714844 387.535156 241.789062 384.628906 243.9375 382.558594 C 246.09375 380.488281 249.105469 379.453125 252.972656 379.453125 C 254.214844 379.453125 255.730469 379.65625 257.519531 380.0625 L 257.425781 386.988281 C 256.683594 386.800781 255.777344 386.707031 254.707031 386.707031 C 251.347656 386.707031 249.667969 388.285156 249.667969 391.441406 L 249.667969 394.125 L 256.3125 394.125 L 256.3125 400.675781 L 249.667969 400.675781 Z M 262.710938 385.910156 L 271.640625 385.910156 L 271.640625 394.125 L 277.359375 394.125 L 277.359375 400.675781 L 271.640625 400.675781 L 271.640625 417.363281 C 271.640625 418.597656 271.878906 419.484375 272.355469 420.023438 C 272.824219 420.554688 273.730469 420.820312 275.074219 420.820312 C 276.058594 420.820312 276.933594 420.75 277.699219 420.609375 L 277.699219 427.371094 C 275.949219 427.910156 274.144531 428.179688 272.285156 428.179688 C 266.027344 428.179688 262.835938 425.015625 262.710938 418.6875 L 262.710938 400.675781 L 257.824219 400.675781 L 257.824219 394.125 L 262.710938 394.125 Z M 308.53125 382.570312 L 308.53125 427.558594 L 299.261719 427.558594 L 299.261719 382.570312 Z M 334.640625 418.324219 C 334.640625 417.230469 334.101562 416.367188 333.023438 415.734375 C 331.9375 415.109375 330.203125 414.550781 327.820312 414.058594 C 319.867188 412.386719 315.890625 409.007812 315.890625 403.921875 C 315.890625 400.953125 317.121094 398.476562 319.582031 396.492188 C 322.042969 394.5 325.261719 393.503906 329.238281 393.503906 C 333.480469 393.503906 336.875 394.503906 339.421875 396.503906 C 341.960938 398.503906 343.230469 401.101562 343.230469 404.296875 L 334.300781 404.296875 C 334.300781 403.015625 333.890625 401.957031 333.070312 401.121094 C 332.242188 400.292969 330.953125 399.878906 329.203125 399.878906 C 327.703125 399.878906 326.539062 400.21875 325.710938 400.898438 C 324.890625 401.578125 324.480469 402.441406 324.480469 403.488281 C 324.480469 404.480469 324.949219 405.277344 325.886719 405.878906 C 326.824219 406.488281 328.402344 407.015625 330.621094 407.460938 C 332.847656 407.90625 334.722656 408.40625 336.246094 408.960938 C 340.964844 410.6875 343.324219 413.683594 343.324219 417.949219 C 343.324219 420.996094 342.015625 423.460938 339.398438 425.34375 C 336.78125 427.234375 333.402344 428.179688 329.261719 428.179688 C 326.464844 428.179688 323.980469 427.679688 321.808594 426.679688 C 319.636719 425.679688 317.929688 424.308594 316.6875 422.566406 C 315.453125 420.824219 314.835938 418.945312 314.835938 416.929688 L 323.308594 416.929688 C 323.386719 418.515625 323.972656 419.730469 325.066406 420.574219 C 326.160156 421.417969 327.621094 421.839844 329.449219 421.839844 C 331.160156 421.839844 332.453125 421.515625 333.328125 420.867188 C 334.203125 420.21875 334.640625 419.371094 334.640625 418.324219 Z M 367.980469 393.914062 L 367.863281 402.503906 C 366.644531 402.339844 365.574219 402.257812 364.652344 402.257812 C 361.269531 402.257812 359.054688 403.398438 358.007812 405.679688 L 358.007812 427.558594 L 349.078125 427.558594 L 349.078125 394.125 L 357.503906 394.125 L 357.761719 398.109375 C 359.550781 395.039062 362.03125 393.503906 365.203125 393.503906 C 366.195312 393.503906 367.121094 393.640625 367.980469 393.914062 Z M 399.621094 427.558594 L 390.597656 427.558594 C 390.191406 426.753906 389.894531 425.753906 389.707031 424.558594 C 387.542969 426.972656 384.730469 428.179688 381.269531 428.179688 C 377.996094 428.179688 375.28125 427.230469 373.125 425.332031 C 370.976562 423.441406 369.902344 421.050781 369.902344 418.160156 C 369.902344 414.621094 371.214844 411.902344 373.839844 410.003906 C 376.464844 408.113281 380.261719 407.15625 385.230469 407.132812 L 389.332031 407.132812 L 389.332031 405.222656 C 389.332031 403.675781 388.9375 402.4375 388.148438 401.507812 C 387.351562 400.585938 386.097656 400.125 384.386719 400.125 C 382.886719 400.125 381.707031 400.484375 380.847656 401.203125 C 379.996094 401.921875 379.570312 402.910156 379.570312 404.167969 L 370.640625 404.167969 C 370.640625 402.230469 371.238281 400.4375 372.433594 398.789062 C 373.628906 397.140625 375.316406 395.847656 377.496094 394.910156 C 379.683594 393.972656 382.136719 393.503906 384.855469 393.503906 C 388.972656 393.503906 392.242188 394.539062 394.664062 396.609375 C 397.085938 398.679688 398.296875 401.589844 398.296875 405.339844 L 398.296875 419.835938 C 398.320312 423.007812 398.761719 425.40625 399.621094 427.03125 Z M 383.214844 421.347656 C 384.535156 421.347656 385.75 421.054688 386.859375 420.46875 C 387.976562 419.882812 388.800781 419.09375 389.332031 418.101562 L 389.332031 412.359375 L 385.992188 412.359375 C 381.523438 412.359375 379.144531 413.902344 378.855469 416.988281 L 378.832031 417.515625 C 378.832031 418.625 379.222656 419.542969 380.003906 420.269531 C 380.785156 420.988281 381.855469 421.347656 383.214844 421.347656 Z M 420.539062 428.179688 C 415.640625 428.179688 411.652344 426.675781 408.574219 423.667969 C 405.488281 420.660156 403.945312 416.652344 403.945312 411.644531 L 403.945312 410.777344 C 403.945312 407.417969 404.597656 404.417969 405.902344 401.777344 C 407.199219 399.128906 409.035156 397.089844 411.410156 395.660156 C 413.792969 394.222656 416.507812 393.503906 419.554688 393.503906 C 424.125 393.503906 427.722656 394.945312 430.347656 397.828125 C 432.980469 400.71875 434.296875 404.808594 434.296875 410.097656 L 434.296875 413.742188 L 413.003906 413.742188 C 413.292969 415.929688 414.164062 417.683594 415.617188 419.003906 C 417.070312 420.316406 418.90625 420.972656 421.125 420.972656 C 424.570312 420.972656 427.261719 419.726562 429.199219 417.234375 L 433.582031 422.15625 C 432.246094 424.046875 430.433594 425.523438 428.144531 426.585938 C 425.855469 427.648438 423.320312 428.179688 420.539062 428.179688 Z M 419.519531 400.734375 C 417.753906 400.734375 416.320312 401.332031 415.21875 402.527344 C 414.109375 403.722656 413.402344 405.433594 413.097656 407.660156 L 425.519531 407.660156 L 425.519531 406.945312 C 425.480469 404.96875 424.945312 403.441406 423.914062 402.363281 C 422.882812 401.277344 421.417969 400.734375 419.519531 400.734375 Z M 448.78125 380.097656 L 448.78125 427.558594 L 439.828125 427.558594 L 439.828125 380.097656 Z M 448.78125 380.097656 "/>
</g>
</svg>
